<?xml version="1.0" standalone="no"?>
<!DOCTYPE svg PUBLIC "-//W3C//DTD SVG 20010904//EN"
 "http://www.w3.org/TR/2001/REC-SVG-20010904/DTD/svg10.dtd">
<svg version="1.0" xmlns="http://www.w3.org/2000/svg"
 width="980.000000pt" height="736.000000pt" viewBox="0 0 980.000000 736.000000"
 preserveAspectRatio="xMidYMid meet">
<metadata>
Created by potrace 1.15, written by Peter Selinger 2001-2017
</metadata>
<g transform="translate(0.000000,736.000000) scale(0.100000,-0.100000)"
fill="#000000" stroke="none">
<path d="M725 7343 c-340 -76 -641 -378 -711 -714 -12 -59 -14 -485 -12 -2981
l3 -2913 34 -97 c44 -129 116 -243 220 -351 127 -132 279 -224 438 -264 64
-17 296 -18 4203 -18 4000 0 4137 1 4205 19 92 24 222 85 299 140 85 60 222
208 272 292 22 38 53 100 68 138 60 149 56 -57 54 3118 l-3 2913 -24 70 c-49
147 -115 256 -220 367 -124 133 -259 217 -415 262 l-88 26 -4152 -1 c-2283 -1
-4160 -3 -4171 -6z m7440 -1132 c-148 -146 -2153 -2121 -2610 -2571 -110 -108
-222 -210 -249 -225 -177 -103 -378 -111 -563 -23 -64 30 -147 110 -1543 1505
l-1475 1473 3300 0 3300 0 -160 -159z m-5331 -2111 c1180 -1137 1697 -1629
1747 -1662 280 -185 669 -160 921 59 38 32 798 806 1690 1721 l1623 1662 3
-2232 c2 -2013 1 -2241 -14 -2313 -37 -188 -146 -297 -335 -337 -95 -19 -7043
-19 -7138 0 -171 36 -270 123 -329 289 -15 45 -17 209 -19 2321 l-3 2274 89
-84 c49 -45 843 -810 1765 -1698z"/>
</g>
</svg>
