<?xml version="1.0" standalone="no"?>
<!DOCTYPE svg PUBLIC "-//W3C//DTD SVG 20010904//EN"
 "http://www.w3.org/TR/2001/REC-SVG-20010904/DTD/svg10.dtd">
<svg version="1.0" xmlns="http://www.w3.org/2000/svg"
 width="227.000000pt" height="222.000000pt" viewBox="0 0 227.000000 222.000000"
 preserveAspectRatio="xMidYMid meet">
<metadata>
Created by potrace 1.15, written by Peter Selinger 2001-2017
</metadata>
<g transform="translate(0.000000,222.000000) scale(0.100000,-0.100000)"
fill="#000000" stroke="none">
<path d="M1002 2209 c-475 -61 -843 -389 -962 -855 -57 -222 -47 -503 24 -671
123 -292 486 -654 682 -680 51 -6 89 22 99 73 14 77 -34 125 -142 143 -80 13
-135 42 -198 105 -85 85 -145 235 -100 252 20 8 53 -18 110 -88 67 -82 139
-123 217 -123 46 0 62 5 82 24 34 32 42 80 22 120 -21 40 -50 57 -109 65 -59
7 -92 24 -140 72 -77 78 -132 236 -143 417 -6 104 0 178 38 460 l21 157 632 0
632 0 21 -157 c38 -282 44 -356 38 -460 -19 -294 -142 -493 -307 -493 -66 0
-93 -80 -93 -275 0 -155 11 -208 51 -256 25 -29 30 -31 79 -27 80 7 164 67
339 243 112 113 164 172 204 239 133 215 189 452 163 685 -30 269 -148 517
-336 704 -252 252 -587 370 -924 326z"/>
</g>
</svg>
