<?xml version="1.0" standalone="no"?>
<!DOCTYPE svg PUBLIC "-//W3C//DTD SVG 20010904//EN"
 "http://www.w3.org/TR/2001/REC-SVG-20010904/DTD/svg10.dtd">
<svg version="1.0" xmlns="http://www.w3.org/2000/svg"
 width="512.000000pt" height="512.000000pt" viewBox="0 0 512.000000 512.000000"
 preserveAspectRatio="xMidYMid meet">
<metadata>
Created by potrace 1.15, written by Peter Selinger 2001-2017
</metadata>
<g transform="translate(0.000000,512.000000) scale(0.100000,-0.100000)"
fill="#000000" stroke="none">
<path d="M455 4994 c-212 -41 -386 -201 -440 -404 -24 -90 -20 -244 10 -337
57 -181 202 -316 395 -369 90 -25 291 -25 380 -1 171 46 305 148 374 286 174
344 -19 749 -392 826 -89 18 -232 18 -327 -1z"/>
<path d="M3755 3493 c-360 -29 -640 -184 -837 -463 l-43 -62 -3 226 -2 226
-553 0 -552 0 0 -1655 0 -1655 552 0 552 0 3 1003 c4 1126 -1 1052 81 1196 76
135 208 244 344 287 71 22 199 29 279 15 215 -38 357 -193 415 -456 22 -99 23
-110 26 -1072 l4 -973 550 0 549 0 0 1038 c0 626 -4 1073 -10 1127 -44 390
-166 675 -384 890 -200 198 -425 297 -742 324 -116 11 -146 11 -229 4z"/>
<path d="M60 1765 l0 -1655 555 0 555 0 0 1655 0 1655 -555 0 -555 0 0 -1655z"/>
</g>
</svg>
