<?xml version="1.0" standalone="no"?>
<!DOCTYPE svg PUBLIC "-//W3C//DTD SVG 20010904//EN"
 "http://www.w3.org/TR/2001/REC-SVG-20010904/DTD/svg10.dtd">
<svg version="1.0" xmlns="http://www.w3.org/2000/svg"
 width="860.000000pt" height="648.000000pt" viewBox="0 0 860.000000 648.000000"
 preserveAspectRatio="xMidYMid meet">
<metadata>
Created by potrace 1.15, written by Peter Selinger 2001-2017
</metadata>
<g transform="translate(0.000000,648.000000) scale(0.100000,-0.100000)"
fill="#000000" stroke="none">
<path d="M3910 6070 c-1486 -47 -2497 -293 -3105 -759 -89 -68 -238 -215 -300
-295 -115 -152 -194 -344 -203 -498 l-5 -88 1182 0 1181 0 0 69 c0 98 -24 218
-70 356 -47 140 -50 172 -17 184 37 14 219 40 362 52 193 16 2123 24 2475 10
278 -11 478 -30 576 -54 46 -11 49 -14 52 -46 2 -20 -9 -70 -27 -120 -51 -145
-70 -227 -77 -341 l-7 -110 1182 0 1181 0 0 73 c0 95 -22 181 -70 285 -139
296 -425 565 -806 760 -416 212 -927 351 -1605 436 -549 70 -1312 104 -1899
86z"/>
<path d="M3174 4250 c-60 -19 -76 -49 -85 -157 -4 -54 -8 -177 -9 -273 0 -96
-5 -191 -10 -211 -16 -56 -58 -89 -136 -105 -88 -19 -119 -38 -174 -106 -109
-136 -1121 -1782 -1203 -1956 -38 -82 -46 -177 -46 -603 l-1 -316 41 -47 41
-46 2703 0 2702 0 43 46 42 46 -5 411 c-3 290 -8 424 -17 452 -7 22 -40 89
-75 150 -172 303 -905 1496 -1077 1752 -116 174 -138 193 -253 217 -36 8 -75
22 -86 32 -50 45 -53 62 -59 356 -5 259 -7 279 -26 305 -38 52 -75 63 -220 63
-151 0 -185 -5 -213 -31 -32 -30 -38 -76 -49 -344 -11 -269 -20 -315 -64 -348
-24 -18 -51 -21 -270 -29 -239 -9 -840 -3 -948 9 -111 12 -130 68 -130 394 0
112 -5 222 -10 243 -5 22 -23 53 -39 70 l-31 31 -153 2 c-83 1 -166 -2 -183
-7z m1496 -1073 c214 -51 359 -121 517 -250 182 -148 292 -362 293 -565 0 -83
-19 -118 -77 -144 -40 -18 -66 -20 -199 -20 -84 1 -170 4 -191 7 -75 12 -6
-22 141 -71 78 -26 165 -55 193 -66 l53 -19 -21 -41 c-26 -51 -165 -196 -249
-259 -209 -158 -473 -233 -820 -233 -262 0 -397 31 -620 145 -258 131 -428
324 -486 551 -21 81 -15 270 11 343 78 225 248 400 518 531 203 99 337 125
622 120 181 -4 224 -7 315 -29z"/>
<path d="M4220 2754 c-118 -23 -235 -79 -307 -146 -71 -68 -105 -139 -111
-232 -6 -100 25 -171 114 -256 109 -105 244 -153 424 -152 112 1 188 19 290
69 189 92 279 269 219 428 -41 109 -190 235 -323 272 -52 14 -260 26 -306 17z"/>
<path d="M302 4068 c5 -201 18 -249 70 -267 43 -15 2173 -15 2216 0 52 18 65
66 70 267 l4 172 -1182 0 -1182 0 4 -172z"/>
<path d="M5935 4058 c4 -100 11 -192 16 -205 4 -12 20 -30 36 -40 26 -17 86
-18 1110 -21 596 -1 1098 1 1115 6 25 6 38 18 53 47 17 34 20 66 23 218 l4
177 -1182 0 -1183 0 8 -182z"/>
</g>
</svg>
